<mxfile host="app.diagrams.net" modified="2023-07-07T17:10:20.885Z" agent="Mozilla/5.0 (Macintosh; Intel Mac OS X 10_15_7) AppleWebKit/537.36 (KHTML, like Gecko) Chrome/114.0.0.0 Safari/537.36" version="21.6.1" etag="cmGjE6OTjO5zT616Za3F" type="github">
  <diagram name="Page-1" id="RG7bgrkMT-jk6Yt7MbPn">
    <mxGraphModel>
      <root>
        <mxCell id="0" />
        <mxCell id="1" parent="0" />
      </root>
    </mxGraphModel>
  </diagram>
</mxfile>
